<mxfile host="app.diagrams.net" modified="2021-06-09T08:19:27.726Z" agent="5.0 (Windows NT 10.0; Win64; x64) AppleWebKit/537.36 (KHTML, like Gecko) Chrome/91.0.4472.77 Safari/537.36" etag="ccrpLhHmVK97jkOEUDo8" version="14.7.6" type="github">
  <diagram id="C5RBs43oDa-KdzZeNtuy" name="Page-1">
    <mxGraphModel dx="962" dy="563" grid="1" gridSize="10" guides="1" tooltips="1" connect="1" arrows="1" fold="1" page="1" pageScale="1" pageWidth="827" pageHeight="1169" math="0" shadow="0">
      <root>
        <mxCell id="WIyWlLk6GJQsqaUBKTNV-0" />
        <mxCell id="WIyWlLk6GJQsqaUBKTNV-1" parent="WIyWlLk6GJQsqaUBKTNV-0" />
        <mxCell id="WIyWlLk6GJQsqaUBKTNV-2" value="" style="rounded=0;html=1;jettySize=auto;orthogonalLoop=1;fontSize=11;endArrow=block;endFill=0;endSize=8;strokeWidth=1;shadow=0;labelBackgroundColor=none;edgeStyle=orthogonalEdgeStyle;" parent="WIyWlLk6GJQsqaUBKTNV-1" source="WIyWlLk6GJQsqaUBKTNV-3" target="WIyWlLk6GJQsqaUBKTNV-6" edge="1">
          <mxGeometry relative="1" as="geometry" />
        </mxCell>
        <mxCell id="WIyWlLk6GJQsqaUBKTNV-3" value="开始" style="rounded=1;whiteSpace=wrap;html=1;fontSize=12;glass=0;strokeWidth=1;shadow=0;" parent="WIyWlLk6GJQsqaUBKTNV-1" vertex="1">
          <mxGeometry x="95" y="30" width="120" height="40" as="geometry" />
        </mxCell>
        <mxCell id="N0uCZhorZuON398wcutJ-13" value="" style="edgeStyle=orthogonalEdgeStyle;rounded=0;orthogonalLoop=1;jettySize=auto;html=1;startArrow=none;" edge="1" parent="WIyWlLk6GJQsqaUBKTNV-1" source="N0uCZhorZuON398wcutJ-9" target="N0uCZhorZuON398wcutJ-12">
          <mxGeometry relative="1" as="geometry" />
        </mxCell>
        <mxCell id="N0uCZhorZuON398wcutJ-19" value="" style="edgeStyle=orthogonalEdgeStyle;rounded=0;orthogonalLoop=1;jettySize=auto;html=1;" edge="1" parent="WIyWlLk6GJQsqaUBKTNV-1" source="WIyWlLk6GJQsqaUBKTNV-6" target="N0uCZhorZuON398wcutJ-18">
          <mxGeometry relative="1" as="geometry" />
        </mxCell>
        <mxCell id="WIyWlLk6GJQsqaUBKTNV-6" value="&lt;font style=&quot;font-size: 15px&quot;&gt;判断是否登录&lt;br&gt;&lt;/font&gt;" style="rhombus;whiteSpace=wrap;html=1;shadow=0;fontFamily=Helvetica;fontSize=12;align=center;strokeWidth=1;spacing=6;spacingTop=-4;" parent="WIyWlLk6GJQsqaUBKTNV-1" vertex="1">
          <mxGeometry x="50" y="100" width="210" height="100" as="geometry" />
        </mxCell>
        <mxCell id="N0uCZhorZuON398wcutJ-1" value="&lt;font style=&quot;font-size: 14px&quot;&gt;`${gatewayUrl}/api/common/wechat/weapp/code2session`&lt;/font&gt;" style="whiteSpace=wrap;html=1;rounded=1;arcSize=50;align=center;verticalAlign=middle;strokeWidth=1;autosize=1;spacing=4;treeFolding=1;treeMoving=1;newEdgeStyle={&quot;edgeStyle&quot;:&quot;entityRelationEdgeStyle&quot;,&quot;startArrow&quot;:&quot;none&quot;,&quot;endArrow&quot;:&quot;none&quot;,&quot;segment&quot;:10,&quot;curved&quot;:1};" vertex="1" parent="WIyWlLk6GJQsqaUBKTNV-1">
          <mxGeometry x="239" y="65" width="416" height="35" as="geometry" />
        </mxCell>
        <mxCell id="N0uCZhorZuON398wcutJ-2" value="" style="edgeStyle=entityRelationEdgeStyle;startArrow=none;endArrow=none;segment=10;curved=1;" edge="1" target="N0uCZhorZuON398wcutJ-1" parent="WIyWlLk6GJQsqaUBKTNV-1">
          <mxGeometry relative="1" as="geometry">
            <mxPoint x="215" y="130" as="sourcePoint" />
          </mxGeometry>
        </mxCell>
        <mxCell id="N0uCZhorZuON398wcutJ-12" value="机器人初始化&lt;br&gt;域名 + &#39;/servlet/appChat?s=p&#39;" style="whiteSpace=wrap;html=1;shadow=0;strokeWidth=1;spacing=6;spacingTop=-4;" vertex="1" parent="WIyWlLk6GJQsqaUBKTNV-1">
          <mxGeometry x="57.5" y="830" width="195" height="65" as="geometry" />
        </mxCell>
        <mxCell id="N0uCZhorZuON398wcutJ-9" value="已登陆" style="text;html=1;strokeColor=none;fillColor=none;align=center;verticalAlign=middle;whiteSpace=wrap;rounded=0;" vertex="1" parent="WIyWlLk6GJQsqaUBKTNV-1">
          <mxGeometry x="135" y="340" width="40" height="20" as="geometry" />
        </mxCell>
        <mxCell id="N0uCZhorZuON398wcutJ-14" value="" style="edgeStyle=orthogonalEdgeStyle;rounded=0;orthogonalLoop=1;jettySize=auto;html=1;endArrow=none;" edge="1" parent="WIyWlLk6GJQsqaUBKTNV-1" source="WIyWlLk6GJQsqaUBKTNV-6" target="N0uCZhorZuON398wcutJ-9">
          <mxGeometry relative="1" as="geometry">
            <mxPoint x="155" y="200" as="sourcePoint" />
            <mxPoint x="155" y="300" as="targetPoint" />
          </mxGeometry>
        </mxCell>
        <mxCell id="N0uCZhorZuON398wcutJ-24" value="" style="edgeStyle=orthogonalEdgeStyle;rounded=0;orthogonalLoop=1;jettySize=auto;html=1;" edge="1" parent="WIyWlLk6GJQsqaUBKTNV-1" source="N0uCZhorZuON398wcutJ-18" target="N0uCZhorZuON398wcutJ-23">
          <mxGeometry relative="1" as="geometry" />
        </mxCell>
        <mxCell id="N0uCZhorZuON398wcutJ-85" style="edgeStyle=orthogonalEdgeStyle;rounded=0;orthogonalLoop=1;jettySize=auto;html=1;entryX=0.5;entryY=0;entryDx=0;entryDy=0;fontSize=13;" edge="1" parent="WIyWlLk6GJQsqaUBKTNV-1" source="N0uCZhorZuON398wcutJ-18" target="N0uCZhorZuON398wcutJ-84">
          <mxGeometry relative="1" as="geometry" />
        </mxCell>
        <mxCell id="N0uCZhorZuON398wcutJ-18" value="&lt;font style=&quot;font-size: 14px&quot;&gt;判断是否授权&lt;br&gt;&lt;/font&gt;" style="rhombus;whiteSpace=wrap;html=1;shadow=0;fontFamily=Helvetica;fontSize=12;align=center;strokeWidth=1;spacing=6;spacingTop=-4;" vertex="1" parent="WIyWlLk6GJQsqaUBKTNV-1">
          <mxGeometry x="470" y="210" width="150" height="60" as="geometry" />
        </mxCell>
        <mxCell id="N0uCZhorZuON398wcutJ-20" value="未登陆" style="text;html=1;strokeColor=none;fillColor=none;align=center;verticalAlign=middle;whiteSpace=wrap;rounded=0;" vertex="1" parent="WIyWlLk6GJQsqaUBKTNV-1">
          <mxGeometry x="320" y="130" width="40" height="20" as="geometry" />
        </mxCell>
        <mxCell id="N0uCZhorZuON398wcutJ-23" value="调授权接口：&lt;br&gt;`${gatewayUrl}/api/common/wechat/weapp/userInfo`" style="whiteSpace=wrap;html=1;shadow=0;strokeWidth=1;spacing=6;spacingTop=-4;fontSize=13;align=left;" vertex="1" parent="WIyWlLk6GJQsqaUBKTNV-1">
          <mxGeometry x="775" y="211.25" width="315" height="57.5" as="geometry" />
        </mxCell>
        <mxCell id="N0uCZhorZuON398wcutJ-25" value="未授权" style="text;html=1;strokeColor=none;fillColor=none;align=center;verticalAlign=middle;whiteSpace=wrap;rounded=0;" vertex="1" parent="WIyWlLk6GJQsqaUBKTNV-1">
          <mxGeometry x="670" y="220" width="40" height="20" as="geometry" />
        </mxCell>
        <mxCell id="N0uCZhorZuON398wcutJ-26" value="已授权" style="text;html=1;strokeColor=none;fillColor=none;align=center;verticalAlign=middle;whiteSpace=wrap;rounded=0;" vertex="1" parent="WIyWlLk6GJQsqaUBKTNV-1">
          <mxGeometry x="520" y="300" width="40" height="20" as="geometry" />
        </mxCell>
        <mxCell id="N0uCZhorZuON398wcutJ-103" style="edgeStyle=orthogonalEdgeStyle;rounded=0;orthogonalLoop=1;jettySize=auto;html=1;fontSize=13;" edge="1" parent="WIyWlLk6GJQsqaUBKTNV-1" source="N0uCZhorZuON398wcutJ-29">
          <mxGeometry relative="1" as="geometry">
            <mxPoint x="250" y="870" as="targetPoint" />
            <Array as="points">
              <mxPoint x="450" y="860" />
              <mxPoint x="250" y="860" />
            </Array>
          </mxGeometry>
        </mxCell>
        <mxCell id="N0uCZhorZuON398wcutJ-29" value="登录：`${uim}/oauth20/wechatToken`" style="html=1;shadow=0;strokeWidth=1;spacing=6;spacingTop=-4;fontSize=13;align=left;whiteSpace=wrap;" vertex="1" parent="WIyWlLk6GJQsqaUBKTNV-1">
          <mxGeometry x="330" y="700" width="255" height="65" as="geometry" />
        </mxCell>
        <mxCell id="N0uCZhorZuON398wcutJ-92" style="edgeStyle=orthogonalEdgeStyle;rounded=0;orthogonalLoop=1;jettySize=auto;html=1;entryX=0.581;entryY=0;entryDx=0;entryDy=0;entryPerimeter=0;fontSize=13;" edge="1" parent="WIyWlLk6GJQsqaUBKTNV-1" source="N0uCZhorZuON398wcutJ-32" target="N0uCZhorZuON398wcutJ-72">
          <mxGeometry relative="1" as="geometry" />
        </mxCell>
        <mxCell id="N0uCZhorZuON398wcutJ-32" value="手机号登录&lt;br&gt;" style="whiteSpace=wrap;html=1;shadow=0;strokeWidth=1;spacing=6;spacingTop=-4;" vertex="1" parent="WIyWlLk6GJQsqaUBKTNV-1">
          <mxGeometry x="330" y="470" width="120" height="60" as="geometry" />
        </mxCell>
        <mxCell id="N0uCZhorZuON398wcutJ-45" value="" style="endArrow=classic;html=1;fontSize=13;" edge="1" parent="WIyWlLk6GJQsqaUBKTNV-1">
          <mxGeometry width="50" height="50" relative="1" as="geometry">
            <mxPoint x="900" y="330" as="sourcePoint" />
            <mxPoint x="550" y="330" as="targetPoint" />
          </mxGeometry>
        </mxCell>
        <mxCell id="N0uCZhorZuON398wcutJ-49" value="" style="endArrow=none;html=1;fontSize=13;" edge="1" parent="WIyWlLk6GJQsqaUBKTNV-1">
          <mxGeometry width="50" height="50" relative="1" as="geometry">
            <mxPoint x="900" y="328.75" as="sourcePoint" />
            <mxPoint x="900" y="268.75" as="targetPoint" />
            <Array as="points" />
          </mxGeometry>
        </mxCell>
        <mxCell id="N0uCZhorZuON398wcutJ-94" style="edgeStyle=orthogonalEdgeStyle;rounded=0;orthogonalLoop=1;jettySize=auto;html=1;fontSize=13;" edge="1" parent="WIyWlLk6GJQsqaUBKTNV-1" source="N0uCZhorZuON398wcutJ-54">
          <mxGeometry relative="1" as="geometry">
            <mxPoint x="715" y="570" as="targetPoint" />
          </mxGeometry>
        </mxCell>
        <mxCell id="N0uCZhorZuON398wcutJ-54" value="员工登录&lt;br&gt;（企业微信）" style="whiteSpace=wrap;html=1;shadow=0;strokeWidth=1;spacing=6;spacingTop=-4;" vertex="1" parent="WIyWlLk6GJQsqaUBKTNV-1">
          <mxGeometry x="655" y="470" width="120" height="60" as="geometry" />
        </mxCell>
        <mxCell id="N0uCZhorZuON398wcutJ-96" style="edgeStyle=orthogonalEdgeStyle;rounded=0;orthogonalLoop=1;jettySize=auto;html=1;fontSize=13;" edge="1" parent="WIyWlLk6GJQsqaUBKTNV-1" source="N0uCZhorZuON398wcutJ-72">
          <mxGeometry relative="1" as="geometry">
            <mxPoint x="450" y="700" as="targetPoint" />
            <Array as="points">
              <mxPoint x="369" y="670" />
              <mxPoint x="450" y="670" />
              <mxPoint x="450" y="700" />
            </Array>
          </mxGeometry>
        </mxCell>
        <mxCell id="N0uCZhorZuON398wcutJ-72" value="验证手机号码：`${gatewayUrl}/api/myaccount/dealer/guest`&lt;br style=&quot;font-size: 13px&quot;&gt;发验证码：&lt;br&gt;`${uim}/oauth20/sendmobilecode`" style="html=1;shadow=0;strokeWidth=1;spacing=6;spacingTop=-4;fontSize=13;align=left;whiteSpace=wrap;" vertex="1" parent="WIyWlLk6GJQsqaUBKTNV-1">
          <mxGeometry x="239" y="570" width="260" height="80" as="geometry" />
        </mxCell>
        <mxCell id="N0uCZhorZuON398wcutJ-98" style="edgeStyle=orthogonalEdgeStyle;rounded=0;orthogonalLoop=1;jettySize=auto;html=1;entryX=1;entryY=0.5;entryDx=0;entryDy=0;fontSize=13;" edge="1" parent="WIyWlLk6GJQsqaUBKTNV-1" source="N0uCZhorZuON398wcutJ-77" target="N0uCZhorZuON398wcutJ-12">
          <mxGeometry relative="1" as="geometry">
            <Array as="points">
              <mxPoint x="720" y="863" />
            </Array>
          </mxGeometry>
        </mxCell>
        <mxCell id="N0uCZhorZuON398wcutJ-77" value="robotUrl+ &#39;/servlet/smallProgram/getWXJStaffQYUserInfo&#39;" style="html=1;shadow=0;strokeWidth=1;spacing=6;spacingTop=-4;fontSize=13;align=left;whiteSpace=wrap;" vertex="1" parent="WIyWlLk6GJQsqaUBKTNV-1">
          <mxGeometry x="600" y="570" width="360" height="60" as="geometry" />
        </mxCell>
        <mxCell id="N0uCZhorZuON398wcutJ-86" style="edgeStyle=orthogonalEdgeStyle;rounded=0;orthogonalLoop=1;jettySize=auto;html=1;entryX=0.5;entryY=0;entryDx=0;entryDy=0;fontSize=13;" edge="1" parent="WIyWlLk6GJQsqaUBKTNV-1" source="N0uCZhorZuON398wcutJ-84" target="N0uCZhorZuON398wcutJ-32">
          <mxGeometry relative="1" as="geometry" />
        </mxCell>
        <mxCell id="N0uCZhorZuON398wcutJ-89" style="edgeStyle=orthogonalEdgeStyle;rounded=0;orthogonalLoop=1;jettySize=auto;html=1;entryX=0.5;entryY=0;entryDx=0;entryDy=0;fontSize=13;" edge="1" parent="WIyWlLk6GJQsqaUBKTNV-1" source="N0uCZhorZuON398wcutJ-84" target="N0uCZhorZuON398wcutJ-54">
          <mxGeometry relative="1" as="geometry" />
        </mxCell>
        <mxCell id="N0uCZhorZuON398wcutJ-90" style="edgeStyle=orthogonalEdgeStyle;rounded=0;orthogonalLoop=1;jettySize=auto;html=1;entryX=0.5;entryY=0;entryDx=0;entryDy=0;fontSize=13;" edge="1" parent="WIyWlLk6GJQsqaUBKTNV-1" source="N0uCZhorZuON398wcutJ-84" target="N0uCZhorZuON398wcutJ-87">
          <mxGeometry relative="1" as="geometry" />
        </mxCell>
        <mxCell id="N0uCZhorZuON398wcutJ-84" value="登陆方式" style="rhombus;whiteSpace=wrap;html=1;fontSize=13;align=center;" vertex="1" parent="WIyWlLk6GJQsqaUBKTNV-1">
          <mxGeometry x="470" y="350" width="150" height="80" as="geometry" />
        </mxCell>
        <mxCell id="N0uCZhorZuON398wcutJ-95" style="edgeStyle=orthogonalEdgeStyle;rounded=0;orthogonalLoop=1;jettySize=auto;html=1;fontSize=13;" edge="1" parent="WIyWlLk6GJQsqaUBKTNV-1" source="N0uCZhorZuON398wcutJ-87">
          <mxGeometry relative="1" as="geometry">
            <mxPoint x="450" y="700" as="targetPoint" />
            <Array as="points">
              <mxPoint x="545" y="670" />
              <mxPoint x="450" y="670" />
            </Array>
          </mxGeometry>
        </mxCell>
        <mxCell id="N0uCZhorZuON398wcutJ-87" value="其他登录" style="whiteSpace=wrap;html=1;shadow=0;strokeWidth=1;spacing=6;spacingTop=-4;" vertex="1" parent="WIyWlLk6GJQsqaUBKTNV-1">
          <mxGeometry x="485" y="470" width="120" height="60" as="geometry" />
        </mxCell>
      </root>
    </mxGraphModel>
  </diagram>
</mxfile>
